<svg id="Layer_1" data-name="Layer 1" xmlns="http://www.w3.org/2000/svg" xmlns:xlink="http://www.w3.org/1999/xlink" viewBox="0 0 600 400"><defs><style>.cls-1{fill:url(#linear-gradient);}</style><linearGradient id="linear-gradient" x1="300" y1="123" x2="300" y2="309.76188" gradientUnits="userSpaceOnUse"><stop offset="0" stop-color="#e2126c"/><stop offset="0.5" stop-color="#63bdd3"/><stop offset="1" stop-color="#134154"/></linearGradient></defs><title>9</title><path class="cls-1" d="M438.4639,149.59863,199.88163,138.23779,189.021,83.93506a4.31723,4.31723,0,0,0-4.23608-3.47119H161.74174a4.3208,4.3208,0,0,0,0,8.6416h19.50171l10.8269,54.13623,22.9585,114.79346v34.13721a4.32158,4.32158,0,0,0,4.3208,4.32031h19.15942a27.25382,27.25382,0,0,0,53.85327,0h49.84058a27.25368,27.25368,0,0,0,53.853,0h7.63794a4.32056,4.32056,0,1,0,0-8.64111h-7.63794a27.24542,27.24542,0,0,0-53.853,0H292.36234a27.262,27.262,0,0,0-53.85327,0H223.67V261.92822H403.69388a4.32443,4.32443,0,0,0,4.09863-2.95361L442.357,155.28076a4.32032,4.32032,0,0,0-3.89307-5.68213Z"/></svg>